<svg xmlns="http://www.w3.org/2000/svg" viewBox="0 0 32 32">

  <style>
    path {
      fill: #00afaa;
    }
    @media (prefers-color-scheme: dark) {
      path {
        fill: white;
      }
    }
  </style>


<path d="M19.58,21.25a1.75,1.75,0,0,0-.78-1.5,1.78,1.78,0,0,0-.91-.24,1.92,1.92,0,0,0-.41,0,2.7,2.7,0,0,0-1.64,1.38,15.45,15.45,0,0,1-4.39,4.52h0l.17.54,0,0a15.88,15.88,0,0,0,4.67-4.77,2.27,2.27,0,0,1,1.29-1.13,1.53,1.53,0,0,1,.3,0,1.15,1.15,0,0,1,.59.15,1.19,1.19,0,0,1,.54,1c0,2.34-5,6.3-6.54,7.46h0l.18.55,0,0c1.62-1.21,6.88-5.34,6.9-8"/>
<path d="M17.78,21.92v0a.24.24,0,0,0,0-.14.27.27,0,0,0-.52-.12s0,0,0,0A18.62,18.62,0,0,1,12,27.26l0,0,.17.55,0,0a18.57,18.57,0,0,0,5.56-5.88"/>
<path d="M21.13,21.08a3.35,3.35,0,0,0-3.33-3.23h0c-1.52,0-2.75,1.84-3.48,2.94l0,0c-.16.23-.29.44-.38.54a14.72,14.72,0,0,1-3,2.42h0l.17.54,0,0a15.46,15.46,0,0,0,3.22-2.59,5.55,5.55,0,0,0,.44-.61h0c.63-.94,1.8-2.69,3-2.69h0a2.78,2.78,0,0,1,2.79,2.68,7.78,7.78,0,0,1-2.79,5.62A36.83,36.83,0,0,1,13,30.22h0l.18.54,0,0a39,39,0,0,0,5-3.64,8.35,8.35,0,0,0,3-6"/>
<path d="M22.57,23.07a5.85,5.85,0,0,0-1.23-5.3A4.9,4.9,0,0,0,17.8,16.4h-.12v0c-.05.14-.1.3-.14.45l0,.1h.32a4.4,4.4,0,0,1,3.13,1.17A5.27,5.27,0,0,1,22,23c-.68,4.12-5.55,7.38-8.39,9l-.11.06h1.15c2.65-1.56,7.21-4.79,7.9-8.92"/>
<path d="M13.56,19.94a10,10,0,0,1,2.35-2.51A3.08,3.08,0,0,1,17.43,17h.05l-.18-.55h0a3.48,3.48,0,0,0-1.7.56,10.6,10.6,0,0,0-2.46,2.64,13.36,13.36,0,0,1-2.72,2.5h0l.17.54,0,0a13.69,13.69,0,0,0,3-2.72"/>
<path d="M23.38,17.82a7.4,7.4,0,0,0-5.16-2.92h0v0c-.06.15-.11.31-.16.46l0,0h0a6.93,6.93,0,0,1,4.85,2.66,10.46,10.46,0,0,1,1.34,5.1v.19l.07-.18L24.7,22h0a10.4,10.4,0,0,0-1.32-4.15"/>
<path d="M12.57,18.81a8,8,0,0,1,4.34-3.47h0l-.17-.52h0a8.47,8.47,0,0,0-4.65,3.7c-.34.54-1.39,1.95-2.18,2.11h0l.17.54h0c1.16-.29,2.36-2.14,2.49-2.35"/>
<path d="M24.87,17.34c-.55-1.14-2.71-3.14-6.19-3.73h0v0l-.17.45v0h0c3.72.59,5.52,2.74,5.86,3.44a9.92,9.92,0,0,1,.84,2.61l0,.14,0-.13c.1-.3.19-.6.29-.9h0a9.87,9.87,0,0,0-.7-1.93"/>
<path d="M10.72,18.54l.14-.22a8.49,8.49,0,0,1,5.65-4.25h0l-.16-.52h0a9.06,9.06,0,0,0-6,4.49l-.13.21a3.79,3.79,0,0,1-.75.9l0,0,0,0,.18.59,0-.05.22-.2a3.94,3.94,0,0,0,.85-1"/>
<path d="M16.08,12.77h.05L16,12.23h0c-3.31.12-5.87,3.63-6.58,4.7-.17.26-.31.48-.42.68v0l.25.76,0-.09c.2-.56,3.07-5.51,6.88-5.53"/>
<path d="M11,13.07h0l0,0c1.26-1.1,4.11-1.33,4.67-1.37h0l-.17-.54h0a13.54,13.54,0,0,0-3.4.68A15.61,15.61,0,0,1,15,9.34h0l-.17-.54,0,0c-2.34,1.38-5.6,5.52-6.54,6.76h0l.2.64,0,0c.12-.16,1.18-1.56,2.52-3.1"/>
<path d="M10.07,11.74c1.7-2.36,3.28-3.74,4.45-3.87h0l-.17-.55h0c-1.68.27-3.5,2.38-4.73,4.1a7.92,7.92,0,0,1-2.05,1.92l0,0,.17.54,0,0a8.54,8.54,0,0,0,2.3-2.14"/>
<path d="M9.22,10.53A15.13,15.13,0,0,1,14,6.31l0,0L14,6h0l-.33-.1h0a17.05,17.05,0,0,0-3.19,2.39A9.08,9.08,0,0,1,12,5.37l0,0,0,0-.47-.19h0l0,0A12.24,12.24,0,0,0,9.54,9.21a11.54,11.54,0,0,0-.78,1A5.84,5.84,0,0,1,7.11,11.9h0l.18.54,0,0a6.31,6.31,0,0,0,1.92-1.9"/>
<path d="M10.4,4.63v0h0l-.44-.23,0,0,0,0c-.23.79-1.47,4.8-3.29,5.92h0l.17.53,0,0c2-1.13,3.26-5,3.61-6.19"/>
<path d="M8.67,3.58l0,0L8.2,3.27l0,0V3.3A13.55,13.55,0,0,1,6.09,8.74v0l.22.67,0-.06A14.48,14.48,0,0,0,8.67,3.6Z"/>
<path d="M6.9,2.43v0l-.26-.17-.27-.18L6.31,2v.07A12.52,12.52,0,0,1,5.52,7h0l.28.86,0-.09A15.23,15.23,0,0,0,6.9,2.43"/>
<path d="M5.36,1.39,4.76,1v.07A24.22,24.22,0,0,1,4.85,4.9h0l.4,1.25,0-.14a21.06,21.06,0,0,0,.09-4.6Z"/>
<path d="M4.31,3C4.23,2.12,4.2,1,4.18.62v0h0L3.7.28h0L3.37.05,3.29,0l0,.1v0l.41,1.26h0l.61,1.92Z"/>
<path d="M19.11,12.42h0v0c-.05.16-.11.31-.16.46l0,0h.05c.55,0,5.46.5,7.2,4.38l0,.08.23-.74h0c-1.94-3.57-6.42-4.16-7.3-4.24"/>
<path d="M27,14.75c-2-2.54-6.24-3.38-7.48-3.57h0l-.18.53h0a15.33,15.33,0,0,1,6,2.25,6.21,6.21,0,0,1,1.41,1.39l0,.06.18-.55,0-.1Z"/>
<path d="M19.91,10h0l0,.15-.12.34v0h0c.91.11,5.54.78,7.7,2.71l0,0,0-.05.15-.49v0l0,0c-2.33-1.92-6.85-2.58-7.74-2.7"/>
<path d="M28.68,9.45A24.19,24.19,0,0,0,23.57,9h-1c-1,0-1.85.06-2.33.09h0l-.05.15L20,9.65l0,0H20c.35,0,1.28-.07,2.44-.1a33.58,33.58,0,0,1,5.43,2.28l0,0v0c.06-.17.11-.32.15-.47v0h0A27.83,27.83,0,0,0,24.15,9.6a21.3,21.3,0,0,1,4.37.38h0l0-.08c0-.16.08-.29.12-.41v0Z"/>
<path d="M17.44,31.91l-.1.06h1A20.23,20.23,0,0,0,23,27.38h0c.1-.3.2-.62.31-.94l.32-1-.15.25a20,20,0,0,1-6,6.23"/>
<path d="M20.26,31.88l-.07.06h.89l.55-.48h0l.12-.36c.05-.17.12-.38.2-.61l0-.13-.1.1a19,19,0,0,1-1.63,1.44"/>
</svg>