<?xml version="1.0" encoding="utf-8"?>
<!-- Generator: Adobe Illustrator 24.3.0, SVG Export Plug-In . SVG Version: 6.00 Build 0)  -->
<svg version="1.1" id="Layer_1" xmlns="http://www.w3.org/2000/svg" xmlns:xlink="http://www.w3.org/1999/xlink" x="0px" y="0px"
	 viewBox="0 0 44.8 33.3" style="enable-background:new 0 0 44.8 33.3;" xml:space="preserve">
<style type="text/css">
	.st0{fill:#74D0CB;}
	.st1{fill:#FFFFFF;}
	.st2{fill:#F9AE00;}
	.st3{fill:#00AFAA;}
	.st4{fill:#007580;}
</style>
<circle class="st0" cx="17.6" cy="16.6" r="16.6"/>
<path class="st1" d="M30.5,25.2h-4.2c0.7,2.3,3.1,3.7,5.5,3c1.5-0.4,2.6-1.6,3-3H30.5z"/>
<path class="st2" d="M30.5,2.7c-1.1,0-2,0.9-2,2c0,0,0,0,0,0.1c0,0.1,0,0.1,0,0.2c0.6-0.2,1.3-0.3,2-0.4h0.3c0.6,0,1.2,0.1,1.7,0.2
	l0,0c0.1-1.1-0.8-2-1.9-2.1C30.6,2.7,30.5,2.7,30.5,2.7z"/>
<path class="st3" d="M28.5,4.9c-2.7,0.9-4.7,3.1-5.2,5.9L22,17.4c-0.4,2.2-2.4,3.9-4.7,3.9h13.1v-1.7l0,0v-15
	C29.8,4.6,29.1,4.7,28.5,4.9z"/>
<path class="st4" d="M39,17.4l-1.3-7.1c-0.5-2.7-2.5-4.8-5.1-5.5c-0.6-0.2-1.2-0.2-1.7-0.2h-0.3v16.7h13.2
	C41.4,21.2,39.4,19.6,39,17.4z"/>
<polygon class="st2" points="34,21.2 30.5,21.2 27,21.2 17.3,21.2 17.3,25.2 20.5,25.2 26.2,25.2 30.5,25.2 34.7,25.2 40.5,25.2 
	43.7,25.2 43.7,21.2 "/>
</svg>
