<svg xmlns="http://www.w3.org/2000/svg" viewBox="0 0 42.66 33.31"><circle cx="16.65" cy="16.65" r="16.65" style="fill:#74d0cb"/><path d="M29.49,28.44a4.42,4.42,0,0,0,4.24-3.19H29.49Z" style="fill:#fff"/><path d="M25.25,25.25a4.43,4.43,0,0,0,4.24,3.19V25.25Z" style="fill:#fff"/><path d="M29.49,2.67a2,2,0,0,0-2,2.05c0,.06,0,.11,0,.17a7.73,7.73,0,0,1,2-.36Z" style="fill:#f9ae00"/><path d="M29.8,4.52a7.16,7.16,0,0,1,1.74.24v0a2,2,0,0,0-2.05-2V4.53Z" style="fill:#f9ae00"/><path d="M29.49,19.55V6.77a2,2,0,0,1-2-1.88,7.72,7.72,0,0,0-5.25,5.94L21,17.37a4.73,4.73,0,0,1-4.66,3.87H26A4.41,4.41,0,0,1,29.49,19.55Z" style="fill:#00afaa"/><path d="M29.49,6.77V19.55A4.41,4.41,0,0,1,33,21.24h9.71A4.73,4.73,0,0,1,38,17.37l-1.34-7.15a7,7,0,0,0-5.12-5.46A2.05,2.05,0,0,1,29.49,6.77Z" style="fill:#007580"/><path d="M26,21.24h3.46V19.55A4.41,4.41,0,0,0,26,21.24Z" style="fill:#00afaa"/><path d="M29.49,19.55v1.69H33A4.41,4.41,0,0,0,29.49,19.55Z" style="fill:#007580"/><path d="M29.49,6.77V4.53a7.73,7.73,0,0,0-2,.36A2,2,0,0,0,29.49,6.77Z" style="fill:#00afaa"/><path d="M29.49,4.53V6.77a2.05,2.05,0,0,0,2.05-2,7.16,7.16,0,0,0-1.74-.24Z" style="fill:#007580"/><path d="M26,21.24H16.32v4h8.93a4.26,4.26,0,0,1,.78-4Z" style="fill:#f9ae00"/><path d="M33,21.24a4.18,4.18,0,0,1,.78,4h8.93v-4Z" style="fill:#f9ae00"/><path d="M29.49,21.24H26a4.26,4.26,0,0,0-.78,4h4.24Z" style="fill:#f9ae00"/><path d="M33,21.24H29.49v4h4.24a4.18,4.18,0,0,0-.78-4Z" style="fill:#f9ae00"/></svg>