<svg xmlns="http://www.w3.org/2000/svg" viewBox="0 0 125.54 88.65"><circle cx="38.92" cy="38.92" r="38.92" style="fill:#f5eee3"/><polygon points="86.13 63.35 71.27 63.35 71.27 88.64 71.27 88.64 94.17 65.75 89.26 59.13 86.13 63.35" style="fill:#007580"/><path d="M81.16,53.48l8.1-10.92,11.95,16.1A19,19,0,0,0,73.83,32.35l-2.56,2.56V53.48Z" style="fill:#007580"/><path d="M71.27,53.48V34.91l-2.56-2.56A19,19,0,0,0,41.84,59.22l2.56,2.56L71.27,88.64V53.48Z" style="fill:#00afaa"/><path d="M109.7,53.48l-6.17,8.31-2.32-3.13c-.17.18-.33.38-.51.56l-2.56,2.56-4,4,9.36,12.61,11.14-15h10.87V53.48Z" style="fill:#f9ae00"/><path d="M100.7,59.22c.18-.18.34-.38.51-.56L89.26,42.56l-8.1,10.92H71.27v9.87H86.13l3.13-4.22,4.91,6.62,4-4Z" style="fill:#fff"/></svg>