<svg xmlns="http://www.w3.org/2000/svg" viewBox="0 0 114.3 91.04"><circle cx="38.92" cy="38.92" r="38.92" style="fill:#f5eee3"/><polygon points="98.06 42.93 98.02 42.93 98.02 48.43 98.02 63.87 75.64 74.87 75.64 63.87 53.31 63.87 53.31 80.04 75.69 91.04 75.69 80.04 114.31 80.04 114.31 42.93 98.06 42.93" style="fill:#007580"/><path d="M53.31,56.72H45.94v-4.5h7.37V47.43H45.94v-4.5H98V26.75H37V63.87H53.31V56.72ZM45.94,33.63h42.8v4.51H45.94Z" style="fill:#00afaa"/><polygon points="75.64 74.87 98.02 63.87 98.02 48.43 98.02 42.93 88.74 42.93 88.74 47.43 53.31 47.43 53.31 52.22 88.74 52.22 88.74 56.73 53.31 56.73 53.31 58.36 53.31 63.87 75.64 63.87 75.64 74.87" style="fill:#f9ae00"/><rect x="45.94" y="33.63" width="42.8" height="4.5" style="fill:#007580"/><rect x="45.94" y="42.93" width="7.37" height="4.5" style="fill:#007580"/><rect x="53.31" y="42.93" width="35.42" height="4.5" style="fill:#fff"/><rect x="45.94" y="52.22" width="7.37" height="4.5" style="fill:#007580"/><rect x="53.31" y="52.22" width="35.42" height="4.5" style="fill:#fff"/></svg>