<?xml version="1.0" encoding="utf-8"?>
<!-- Generator: Adobe Illustrator 24.3.0, SVG Export Plug-In . SVG Version: 6.00 Build 0)  -->
<svg version="1.1" id="Layer_1" xmlns="http://www.w3.org/2000/svg" xmlns:xlink="http://www.w3.org/1999/xlink" x="0px" y="0px"
	 viewBox="0 0 130 100" style="enable-background:new 0 0 130 100;" xml:space="preserve">
<style type="text/css">
	.st0{fill:#F5EEE3;}
	.st1{fill:#007580;}
	.st2{fill:#00AFAA;}
	.st3{fill:#F9AE00;}
	.st4{fill:#FFFFFF;}
</style>
<circle class="st0" cx="41.1" cy="44.6" r="38.9"/>
<polygon class="st1" points="88.4,69 73.5,69 73.5,94.3 73.5,94.3 96.4,71.4 91.5,64.8 "/>
<path class="st1" d="M83.4,59.2l8.1-10.9l11.9,16.1c7-7.8,6.3-19.8-1.6-26.8c-7.4-6.6-18.7-6.4-25.8,0.5l-2.6,2.6v18.6H83.4z"/>
<path class="st2" d="M73.5,59.2V40.6L70.9,38c-7.4-7.4-19.5-7.4-26.9,0.1c-7.4,7.4-7.4,19.4,0,26.8l2.6,2.6l26.9,26.9V59.2z"/>
<path class="st3" d="M111.9,59.2l-6.2,8.3l-2.3-3.1c-0.2,0.2-0.3,0.4-0.5,0.6l-2.6,2.6l-4,4l9.4,12.6l11.1-15h10.9v-9.9H111.9z"/>
<path class="st4" d="M102.9,64.9c0.2-0.2,0.3-0.4,0.5-0.6L91.5,48.2l-8.1,10.9h-9.9V69h14.9l3.1-4.2l4.9,6.6l4-4L102.9,64.9z"/>
</svg>
