<svg xmlns="http://www.w3.org/2000/svg" viewBox="0 0 42.44 33.31"><circle cx="16.65" cy="16.65" r="16.65" style="fill:#74d0cb"/><polygon points="36.82 11.01 36.82 11.03 42.44 7.3 20.05 7.3 25.64 11.01 36.82 11.01" style="fill:#f9ae00"/><polygon points="42.44 7.3 36.82 11.03 36.82 22.16 42.44 22.16 42.44 7.3" style="fill:#007580"/><polygon points="20.05 7.3 20.05 11.01 25.64 11.01 20.05 7.3" style="fill:#007580"/><polygon points="20.05 11.01 14.43 11.01 20.05 14.74 20.05 11.01" style="fill:#f9ae00"/><polygon points="25.64 11.01 31.23 14.72 36.82 11.01 25.64 11.01" style="fill:#fff"/><polygon points="25.63 18.44 31.23 14.72 25.64 11.01 20.05 11.01 20.05 14.74 25.63 18.44" style="fill:#f9ae00"/><polygon points="20.05 14.74 14.43 11.01 14.43 25.88 36.82 25.88 36.82 22.16 20.05 22.16 20.05 14.74" style="fill:#007580"/><polygon points="31.23 14.72 31.24 14.73 36.82 11.03 36.82 11.01 31.23 14.72" style="fill:#007580"/><polygon points="31.24 14.73 31.23 14.72 25.63 18.44 20.05 14.74 20.05 22.16 36.82 22.16 36.82 11.03 31.24 14.73" style="fill:#00afaa"/></svg>