<svg xmlns="http://www.w3.org/2000/svg" viewBox="0 0 44.8 33.31"><circle cx="16.65" cy="16.65" r="16.65" style="fill:#74d0cb"/><path d="M29.49,25.25H25.25a4.41,4.41,0,0,0,8.48,0Z" style="fill:#fff"/><path d="M29.49,2.67a2,2,0,0,0-2,2.05c0,.06,0,.11,0,.17a7.73,7.73,0,0,1,2-.36h.31a7.16,7.16,0,0,1,1.74.24v0A2,2,0,0,0,29.49,2.67Z" style="fill:#f9ae00"/><path d="M27.45,4.89a7.72,7.72,0,0,0-5.25,5.94L21,17.37a4.73,4.73,0,0,1-4.66,3.87H29.49V19.55h0v-15A7.73,7.73,0,0,0,27.45,4.89Z" style="fill:#00afaa"/><path d="M38,17.37l-1.34-7.15a7,7,0,0,0-5.12-5.46,7.16,7.16,0,0,0-1.74-.24h-.31V21.24H42.66A4.73,4.73,0,0,1,38,17.37Z" style="fill:#007580"/><polygon points="32.95 21.24 29.49 21.24 26.03 21.24 16.32 21.24 16.32 25.25 19.52 25.25 25.25 25.25 29.49 25.25 33.73 25.25 39.47 25.25 42.66 25.25 42.66 21.24 32.95 21.24" style="fill:#f9ae00"/></svg>