<svg xmlns="http://www.w3.org/2000/svg" viewBox="0 0 106.73 90.79"><circle cx="38.92" cy="38.92" r="38.92" style="fill:#f5eee3"/><polygon points="78.88 63.93 64.15 78.66 76.27 90.79 78.88 63.93" style="fill:#00afaa"/><polygon points="53.06 67.58 53.06 67.58 53.06 67.58 53.06 67.58" style="fill:#007580"/><polygon points="54.41 44.06 41.98 56.5 53.06 67.58 56.72 41.76 54.41 44.06" style="fill:#00afaa"/><path d="M71.25,49.39l5.15-5.14a6.86,6.86,0,0,1-2-4.21L56.72,41.76,53.06,67.58h0Z" style="fill:#fff"/><path d="M76.4,44.25l-5.15,5.14L53.06,67.58l25.82-3.65,1.72-17.7A6.88,6.88,0,0,1,76.4,44.25Z" style="fill:#f9ae00"/><polygon points="53.06 67.58 53.06 67.58 64.15 78.66 78.88 63.93 53.06 67.58" style="fill:#007580"/><path d="M86.14,34.5A6.89,6.89,0,0,1,80.6,46.23l-1.72,17.7L89.5,53.32a59,59,0,0,0,17.23-39.41h0l-12,12Z" style="fill:#007580"/><path d="M74.41,40A6.89,6.89,0,0,1,86.14,34.5l8.6-8.6,12-12a59,59,0,0,0-39.4,17.24L56.72,41.76h0Z" style="fill:#f9ae00"/><path d="M74.41,40a6.86,6.86,0,0,0,2,4.21l4.87-4.88Z" style="fill:#fff"/><path d="M81.27,39.37h0L76.4,44.25a6.88,6.88,0,0,0,4.2,2Z" style="fill:#f9ae00"/><path d="M80.6,46.23A6.89,6.89,0,0,0,86.14,34.5l-4.87,4.87Z" style="fill:#fff"/><path d="M81.27,39.37l4.87-4.87A6.89,6.89,0,0,0,74.41,40l6.86-.67Z" style="fill:#007580"/><polygon points="56.72 41.76 29.86 44.37 41.98 56.5 54.41 44.06 56.72 41.76" style="fill:#007580"/><polygon points="41.98 56.5 41.98 56.5 38.33 82.31 38.33 82.31 53.06 67.58 41.98 56.5" style="fill:#fff"/><polygon points="38.33 82.31 64.15 78.66 53.06 67.58 38.33 82.31" style="fill:#f9ae00"/></svg>