<?xml version="1.0" encoding="utf-8"?>
<!-- Generator: Adobe Illustrator 24.3.0, SVG Export Plug-In . SVG Version: 6.00 Build 0)  -->
<svg version="1.1" id="Layer_1" xmlns="http://www.w3.org/2000/svg" xmlns:xlink="http://www.w3.org/1999/xlink" x="0px" y="0px"
	 viewBox="0 0 44.8 33.3" style="enable-background:new 0 0 44.8 33.3;" xml:space="preserve">
<style type="text/css">
	.st0{fill:#74D0CB;}
	.st1{fill:#007580;}
	.st2{fill:#00AFAA;}
	.st3{fill:#F9AE00;}
	.st4{fill:#FFFFFF;}
</style>
<circle class="st0" cx="19.3" cy="16.6" r="16.6"/>
<path class="st1" d="M31,3l-6.6,2l-4.1,1.2l0,0l-0.4,0.1v12c0,4.7,7.1,8.9,11,10.1c0.1,0,0.2,0,0.3,0c3.8-1.2,11-5.4,11-10v-12L31,3
	z M37.7,17.5h-4.9v4.9h-3.6v-4.9h-4.9V14h4.9V9.1h3.5V14h4.9V17.5z"/>
<rect x="29.2" y="17.5" class="st2" width="3.5" height="5.9"/>
<rect x="29.2" y="8.1" class="st2" width="3.5" height="5.9"/>
<rect x="23.4" y="14" class="st3" width="5.9" height="3.6"/>
<rect x="32.8" y="14" class="st3" width="5.9" height="3.6"/>
<rect x="29.2" y="14" class="st4" width="3.5" height="3.6"/>
</svg>
