<svg xmlns="http://www.w3.org/2000/svg" viewBox="0 0 39.54 33.31"><circle cx="16.65" cy="16.65" r="16.65" style="fill:#74d0cb"/><path d="M28.41,3,21.8,5,17.65,6.23h0l-.38.12v12c0,4.69,7.15,8.86,11,10.05a.58.58,0,0,0,.32,0c3.82-1.19,11-5.36,11-10v-12Zm6.64,14.51H30.18v4.86H26.63V17.52H21.77V14h4.86V9.1h3.55V14h4.87Z" style="fill:#007580"/><rect x="26.63" y="17.52" width="3.55" height="5.86" style="fill:#00afaa"/><rect x="26.63" y="8.1" width="3.55" height="5.86" style="fill:#00afaa"/><rect x="20.77" y="13.96" width="5.86" height="3.55" style="fill:#f9ae00"/><rect x="30.18" y="13.96" width="5.86" height="3.55" style="fill:#f9ae00"/><rect x="26.63" y="13.96" width="3.55" height="3.55" style="fill:#fff"/></svg>