<svg xmlns="http://www.w3.org/2000/svg" viewBox="0 0 44.8 33.31"><circle cx="16.65" cy="16.65" r="16.65" style="fill:#74d0cb"/><path d="M35.34,4.23a1.53,1.53,0,0,0-1.53-1.54H20.36a1.53,1.53,0,0,0-1.53,1.54V5H35.34Z" style="fill:#00afaa"/><path d="M18.83,27.58a1.53,1.53,0,0,0,1.53,1.54H33.81a1.53,1.53,0,0,0,1.53-1.54V26H18.83Z" style="fill:#fff"/><path d="M31.43,22.31a10.58,10.58,0,0,1-5.55-2.1,8.47,8.47,0,0,0,.88.12,7.46,7.46,0,0,0,4.71-1.23,3.75,3.75,0,0,1-3.26-2.85,3.2,3.2,0,0,0,.7.12,3.53,3.53,0,0,0,1-.05,3.72,3.72,0,0,1-2.69-3.86v0a3.63,3.63,0,0,0,1.64.58,3.71,3.71,0,0,1-.76-5,10.54,10.54,0,0,0,7.26,4.44V5H18.83V26H35.34V21.89A10.85,10.85,0,0,1,31.43,22.31Z" style="fill:#007580"/><path d="M42.63,10.74a3.69,3.69,0,0,0,1.78-1.93A7.16,7.16,0,0,1,42,9.53a3.76,3.76,0,0,0-2.62-1.38,3.71,3.71,0,0,0-4,3.42,3.42,3.42,0,0,0,0,.85h-.08v9.48A10.56,10.56,0,0,0,42.8,12.1a7.4,7.4,0,0,0,2-1.78h0A7.88,7.88,0,0,1,42.63,10.74Z" style="fill:#fff"/><path d="M35.34,12.41A10.54,10.54,0,0,1,28.08,8a3.71,3.71,0,0,0,.76,5,3.63,3.63,0,0,1-1.64-.58v0a3.72,3.72,0,0,0,2.69,3.86,3.53,3.53,0,0,1-1,.05,3.2,3.2,0,0,1-.7-.12,3.75,3.75,0,0,0,3.26,2.85,7.46,7.46,0,0,1-4.71,1.23,8.47,8.47,0,0,1-.88-.12,10.58,10.58,0,0,0,5.55,2.1,10.85,10.85,0,0,0,3.91-.42V12.41Z" style="fill:#f9ae00"/></svg>