<?xml version="1.0" encoding="utf-8"?>
<!-- Generator: Adobe Illustrator 24.3.0, SVG Export Plug-In . SVG Version: 6.00 Build 0)  -->
<svg version="1.1" id="Layer_1" xmlns="http://www.w3.org/2000/svg" xmlns:xlink="http://www.w3.org/1999/xlink" x="0px" y="0px"
	 viewBox="0 0 130 100" style="enable-background:new 0 0 130 100;" xml:space="preserve">
<style type="text/css">
	.st0{fill:#F5EEE3;}
	.st1{fill:#007580;}
	.st2{fill:#00AFAA;}
	.st3{fill:#F9AE00;}
	.st4{fill:#FFFFFF;}
</style>
<circle class="st0" cx="46.8" cy="43.4" r="38.9"/>
<polygon class="st1" points="105.9,47.4 105.9,47.4 105.9,52.9 105.9,68.3 83.5,79.4 83.5,68.3 61.2,68.3 61.2,84.5 83.5,95.5 
	83.5,84.5 122.2,84.5 122.2,47.4 "/>
<path class="st2" d="M61.2,61.2h-7.4v-4.5h7.4v-4.8h-7.4v-4.5h52.1V31.2h-61v37.1h16.3C61.2,68.3,61.2,61.2,61.2,61.2z M53.8,38.1
	h42.8v4.5H53.8V38.1z"/>
<polygon class="st3" points="83.5,79.4 105.9,68.3 105.9,52.9 105.9,47.4 96.6,47.4 96.6,51.9 61.2,51.9 61.2,56.7 96.6,56.7 
	96.6,61.2 61.2,61.2 61.2,62.8 61.2,68.3 83.5,68.3 "/>
<rect x="53.8" y="38.1" class="st1" width="42.8" height="4.5"/>
<rect x="53.8" y="47.4" class="st1" width="7.4" height="4.5"/>
<rect x="61.2" y="47.4" class="st4" width="35.4" height="4.5"/>
<rect x="53.8" y="56.7" class="st1" width="7.4" height="4.5"/>
<rect x="61.2" y="56.7" class="st4" width="35.4" height="4.5"/>
</svg>
