<?xml version="1.0" encoding="utf-8"?>
<!-- Generator: Adobe Illustrator 24.3.0, SVG Export Plug-In . SVG Version: 6.00 Build 0)  -->
<svg version="1.1" id="Layer_1" xmlns="http://www.w3.org/2000/svg" xmlns:xlink="http://www.w3.org/1999/xlink" x="0px" y="0px"
	 viewBox="0 0 44.8 33.3" style="enable-background:new 0 0 44.8 33.3;" xml:space="preserve">
<style type="text/css">
	.st0{fill:#74D0CB;}
	.st1{fill:#F9AE00;}
	.st2{fill:#007580;}
	.st3{fill:#FFFFFF;}
	.st4{fill:#00AFAA;}
</style>
<circle class="st0" cx="17.6" cy="16.6" r="16.6"/>
<polygon class="st1" points="37.8,11 37.8,11 43.4,7.3 21,7.3 26.6,11 "/>
<polygon class="st2" points="43.4,7.3 37.8,11 37.8,22.2 43.4,22.2 "/>
<polygon class="st2" points="21,7.3 21,11 26.6,11 "/>
<polygon class="st1" points="21,11 15.4,11 21,14.7 "/>
<polygon class="st3" points="26.6,11 32.2,14.7 37.8,11 "/>
<polygon class="st1" points="26.6,18.4 32.2,14.7 26.6,11 21,11 21,14.7 "/>
<polygon class="st2" points="21,14.7 15.4,11 15.4,25.9 37.8,25.9 37.8,22.2 21,22.2 "/>
<polygon class="st2" points="32.2,14.7 32.2,14.7 37.8,11 37.8,11 "/>
<polygon class="st4" points="32.2,14.7 32.2,14.7 26.6,18.4 21,14.7 21,22.2 37.8,22.2 37.8,11 "/>
</svg>
