<?xml version="1.0" encoding="utf-8"?>
<!-- Generator: Adobe Illustrator 24.3.0, SVG Export Plug-In . SVG Version: 6.00 Build 0)  -->
<svg version="1.1" id="Layer_1" xmlns="http://www.w3.org/2000/svg" xmlns:xlink="http://www.w3.org/1999/xlink" x="0px" y="0px"
	 viewBox="0 0 130 100" style="enable-background:new 0 0 130 100;" xml:space="preserve">
<style type="text/css">
	.st0{fill:#F5EEE3;}
	.st1{fill:#00AFAA;}
	.st2{fill:#007580;}
	.st3{fill:#F9AE00;}
	.st4{fill:#FFFFFF;}
</style>
<circle class="st0" cx="50.6" cy="43.5" r="38.9"/>
<polygon class="st1" points="90.5,68.5 75.8,83.3 87.9,95.4 "/>
<path class="st2" d="M64.7,72.2L64.7,72.2L64.7,72.2z"/>
<polygon class="st1" points="66,48.7 53.6,61.1 64.7,72.2 68.4,46.4 "/>
<polygon class="st2" points="64.7,72.2 64.7,72.2 75.8,83.3 90.5,68.5 "/>
<path class="st2" d="M97.8,39.1c2.7,2.7,2.7,7.1,0,9.7c-1.5,1.5-3.5,2.2-5.5,2l-1.7,17.7l10.6-10.6c10.5-10.5,16.7-24.6,17.2-39.4
	l0,0l-12,12L97.8,39.1z"/>
<path class="st3" d="M86,44.6c-0.3-3.8,2.4-7.1,6.2-7.5c2-0.2,4,0.5,5.5,2l8.6-8.6l12-12c-14.8,0.6-28.8,6.7-39.3,17.2L68.4,46.4
	l0,0L86,44.6z"/>
<polygon class="st4" points="86,44.6 68.4,46.4 64.7,72.2 64.7,72.2 82.9,54 88,48.8 92.9,44 "/>
<polygon class="st3" points="92.9,44 88,48.8 82.9,54 64.7,72.2 90.5,68.5 92.2,50.8 "/>
<path class="st4" d="M92.2,50.8c3.8,0.4,7.2-2.4,7.5-6.2c0.2-2.1-0.5-4.1-2-5.5L92.9,44L92.2,50.8z"/>
<path class="st2" d="M92.9,44l4.9-4.9c-2.7-2.7-7.1-2.7-9.7,0c-1.4,1.4-2.2,3.5-2,5.5L92.9,44L92.9,44z"/>
<polygon class="st2" points="68.4,46.4 41.5,49 53.6,61.1 66,48.7 "/>
<polygon class="st4" points="53.6,61.1 53.6,61.1 50,86.9 50,86.9 64.7,72.2 "/>
<polygon class="st3" points="50,86.9 75.8,83.3 64.7,72.2 "/>
</svg>
