<svg xmlns="http://www.w3.org/2000/svg" viewBox="0 0 824.21 392.56"><path d="M199.82,260.66c.06-7.51-3.15-13.67-9.56-18.38a22,22,0,0,0-11.19-3,21.74,21.74,0,0,0-5,.58c-7.67,1.78-14.44,7.48-20.13,16.95-14.43,24-37.27,44.38-53.84,55.41l-.27.16,2.14,6.67.46-.3C120,307.34,144.27,286,159.7,260.28c4.7-7.81,10-12.46,15.79-13.85a16.68,16.68,0,0,1,3.64-.43,15.2,15.2,0,0,1,7.31,1.83c4.52,3.31,6.69,7.48,6.65,12.78-.19,28.73-61.49,77.27-80.27,91.46l-.24.18,2.17,6.8.47-.35c19.79-14.76,84.38-65.41,84.6-98" style="fill:#fff"/><path d="M177.68,268.88a1.27,1.27,0,0,0,.07-.24,3.29,3.29,0,0,0,.56-1.82,3.33,3.33,0,0,0-6.38-1.37,1.6,1.6,0,0,0-.26.34c-4.51,8.23-22.48,37.54-64.51,68.56l-.25.18,2.17,6.77.46-.34c43.72-31.84,62.22-61,68.14-72.08" style="fill:#fff"/><path d="M218.8,258.56c0-21.31-18.71-39.45-40.87-39.61h-.15c-18.59,0-33.66,22.54-42.67,36l-.19.28c-1.94,2.87-3.6,5.36-4.69,6.63-10.48,12.22-27.52,23.81-36.75,29.62l-.27.18,2.1,6.62.46-.28c7.89-4.88,27.53-17.73,39.56-31.77a91.24,91.24,0,0,0,5.29-7.45l.09-.12c7.73-11.53,22.11-33,37.07-33h.11c18.54.13,34.19,15.18,34.19,32.88,0,11.16-3.34,40.25-34.25,69-15.37,14.27-40.6,31.31-59.05,43.08l-.28.17,2.14,6.65.45-.29c19-12.1,45.15-29.68,61.31-44.68,32.85-30.53,36.4-61.85,36.4-73.9" style="fill:#fff"/><path d="M236.42,283c3.22-19.48,4.44-44.49-15-65.1-9.9-10.46-26.14-16.7-43.45-16.7H176.5l-.1.29c-.59,1.79-1.2,3.64-1.81,5.53l-.38,1.19.61,0c1.07-.06,2.16-.09,3.26-.09,7.44,0,26.1,1.4,38.42,14.43,17.33,18.35,16.44,40.32,13.27,59.38-8.34,50.45-68.08,90.44-102.91,109.78l-1.42.78H128c2.3,0,6.29,0,11.34-.07h.11l.09,0c32.61-19.11,88.5-58.73,96.9-109.35" style="fill:#fff"/><path d="M126,244.56c9.47-13.68,17-21.73,28.78-30.79,3.71-2.88,10.7-4.93,18.7-5.5l.53,0-2.17-6.75-.34,0c-8.7.83-16.1,3.3-20.83,6.92-12.4,9.55-20.3,18-30.21,32.32-7.65,11-26.15,25.67-33.42,30.65l-.25.17,2.11,6.62.45-.3c6.64-4.18,28-20.76,36.65-33.32" style="fill:#fff"/><path d="M246.4,218.52c-4.7-8.08-25.2-30.25-63.24-35.76l-.34,0-.12.33q-1,2.76-2,5.62l-.16.49.5.06c35.86,4.8,55.45,25.73,59.49,32.7,10.32,17.74,15.67,38.18,16.36,62.48l.08,2.41.75-2.3q2.39-7.35,4.82-14.86l0-.08v-.1c-2.22-19.33-7.52-36-16.19-50.94" style="fill:#fff"/><path d="M113.81,230.66c.19-.35,19.77-34,53.3-42.49l.43-.1-2-6.42-.37.11c-36.43,9.33-56.88,45.08-57.07,45.43-4.14,6.52-17,23.87-26.73,25.77l-.46.08,2.1,6.57.38-.1c14.19-3.59,28.83-26.26,30.47-28.85" style="fill:#fff"/><path d="M264.63,212.61c-6.7-13.86-33.19-38.51-75.82-45.65l-.33-.05-.12.33-2,5.56-.17.47.5.08c45.57,7.22,67.72,33.54,71.88,42.17a122.63,122.63,0,0,1,10.33,32l.3,1.61.51-1.55c1.19-3.7,2.37-7.39,3.57-11.07l0-.12,0-.11a123.87,123.87,0,0,0-8.64-23.71" style="fill:#fff"/><path d="M91.13,227.33l1.69-2.68C101,211.6,120,181,162.09,172.55l.46-.1L160.5,166l-.38.08c-44.48,9.24-64.46,41.31-73,55l-1.66,2.62c-4.37,6.8-6.69,8.84-9.14,11l-.63.53-.42.38,2.3,7.17.47-.49c.87-.88,1.72-1.68,2.7-2.53,2.7-2.37,5.5-4.81,10.39-12.43" style="fill:#fff"/><path d="M156.91,156.63h.57L155.36,150H155c-40.61,1.51-72,44.51-80.74,57.64-2.1,3.19-3.78,5.93-5.15,8.37l-.08.16,3,9.42.42-1.15c2.5-6.88,37.6-67.57,84.42-67.82" style="fill:#fff"/><path d="M95,160.32l0-.06h0l.3-.36c15.43-13.45,50.46-16.31,57.33-16.75l.54,0-2.11-6.6-.33,0c-7.28.51-25.56,2.33-41.64,8.25,13.54-14.24,25.2-24.43,34.61-30.24l.28-.16-2.12-6.61-.44.27c-28.66,16.9-68.67,67.7-80.25,82.87l-.13.17L63.56,199l.47-.66c1.45-1.92,14.47-19.16,30.92-38" style="fill:#fff"/><path d="M83.19,144c20.78-29,40.16-45.83,54.54-47.45l.51,0-2.12-6.69-.36,0c-20.54,3.26-42.89,29.11-58,50.22C69.88,151,59.73,159,52.6,163.66l-.27.18,2.11,6.64.46-.29c6.5-4.12,18.83-13,28.29-26.21" style="fill:#fff"/><path d="M72.71,129.2C90.52,102.6,120,84.08,131.78,77.35l.3-.17L131,74l-.21-.07s-1.51-.47-4-1.3l-.18-.06-.17.1a213.69,213.69,0,0,0-39.19,29.26c4.07-11.33,10.63-26.2,19.54-36.06l.4-.44-.54-.22c-1.87-.77-3.79-1.57-5.73-2.4l-.3-.11-.19.22C85.72,80.36,77.62,109.37,76.64,113a129.35,129.35,0,0,0-9.51,12.45A71.29,71.29,0,0,1,46.91,145.9l-.27.17,2.12,6.63.45-.27c6.12-3.73,15.16-10.78,23.5-23.23" style="fill:#fff"/><path d="M87.14,56.76l.1-.34-.32-.15c-2-1-3.86-2-5.31-2.8l-.46-.25-.15.5c-2.84,9.7-18.14,58.82-40.36,72.55l-.28.17,2.08,6.49.45-.26c24.38-13.85,40-61.61,44.25-75.91" style="fill:#fff"/><path d="M66,43.85l-.22-.14-5.49-3.57-.57-.36-.08.66c-.94,7.81-5.55,35.68-25.25,66.81l-.1.17,2.63,8.2.47-.72c21.07-31.46,27-60,28.57-70.78Z" style="fill:#fff"/><path d="M44.25,29.79v-.22l-3.16-2.08-3.29-2.2-.77-.5.11.9c2.44,19.71-5.05,46-9.75,59.9l0,.14,3.39,10.56.42-1.12C35.5,83.57,45.5,54,44.25,29.79" style="fill:#fff"/><path d="M25.41,17.05l-7.36-4.92.09.87c.58,6,2.41,27.22,1,47.05v.09l4.9,15.33.27-1.76c2.67-17.16,2.55-41.9,1.1-56.47Z" style="fill:#fff"/><path d="M12.55,36.77C11.56,26,11.12,12.77,11,7.6V7.38l-.17-.12C8.54,5.75,6.63,4.45,5.07,3.42l-.16-.11-.1-.06L.93.63,0,0,.33,1.23c0,.1,0,.2.09.31l5,15.57v-.05l7.52,23.53Z" style="fill:#fff"/><path d="M194,152.28l-.32,0-.1.31c-.7,2-1.37,3.88-2,5.72l-.19.52.56.05c6.79.48,67,6.16,88.35,53.66l.44,1,2.9-9-.09-.16c-23.72-43.76-78.73-51.05-89.52-52.05" style="fill:#fff"/><path d="M291,180.9c-25-31.16-76.54-41.41-91.75-43.81l-.35,0-2.2,6.48.49.08c10.68,1.68,47.53,8.66,73.59,27.55a74.74,74.74,0,0,1,17.33,17.16l.48.69,2.16-6.75.39-1.19Z" style="fill:#fff"/><path d="M203.87,123.17l-.34,0-.59,1.8c-.47,1.44-.95,2.87-1.4,4.23l-.16.49.5.06c11.13,1.41,67.92,9.63,94.45,33.26l.49.44.19-.62c.64-2,1.28-4.08,1.93-6l.07-.27-.21-.18c-28.62-23.62-84.09-31.75-94.93-33.14" style="fill:#fff"/><path d="M311.35,115.88c-14.17-3.31-35.24-5-62.61-5-4.3,0-8.49,0-12.47.12l-.26-.08,0,.08c-12.39.23-22.74.73-28.59,1l-.29,0-.58,1.85c-.5,1.52-1,3-1.44,4.44l-.2.59.61,0c4.26-.26,15.66-.86,29.91-1.12,4.36,1.37,40.8,13.15,66.5,28l.46.27.15-.5c.64-2,1.23-3.88,1.82-5.75l.11-.32-.29-.17c-15.77-8.94-34.58-16.54-48.31-21.58,23.17.24,41.2,1.82,53.58,4.65l.37.07.33-1c.58-1.91,1.09-3.56,1.53-5l.12-.41Z" style="fill:#fff"/><path d="M173.51,391.32l-1.19.79,1.42,0c3.52,0,7-.06,10.48-.11h.13l.1-.08a249.64,249.64,0,0,0,56.66-56.15l.07-.12q1.78-5.53,3.71-11.42l4-12.31L247,315a244,244,0,0,1-73.51,76.37" style="fill:#fff"/><path d="M208.18,391l-1,.76,5-.06,5.71-.07h.16l.11-.09c2.21-1.87,4.25-3.7,6.66-5.89l.08-.07,1.39-4.32c.71-2.18,1.52-4.7,2.46-7.52l.52-1.64-1.22,1.21A241.68,241.68,0,0,1,208.18,391" style="fill:#fff"/><path d="M440.92,253.72c.94,4.37,1.87,5,4.14,5,2.05,0,3-.68,3.88-5L477.8,127.78c.94-3.88,2.05-5.53,6.2-5.53h7.58c4.1,0,5,2.55,4.31,5.3L462.25,267.93c-1.6,6.87-6.41,7.76-11.44,7.76H438.66c-5,0-9.85-.89-11.46-7.76L393.52,127.55c-.67-2.75.22-5.3,4.36-5.3h8c4.37,0,5.49,1.65,6.42,5.53Z" style="fill:#fff"/><path d="M558,270.69c0,3.43-1.61,5-5,5h-7.13c-3.43,0-5-1.57-5-5V127.55c0-3.42,1.59-5.3,5-5.3H553c3.43,0,5,1.88,5,5.3Z" style="fill:#fff"/><path d="M687,122.25c3.42,0,5.26,1.66,5.26,5.08v5.93c0,3.42-1.84,5-5.26,5H655.4v132.4c0,3.43-1.59,5-5.07,5h-7.08c-3.43,0-5-1.57-5-5V138.29H606.63c-3.43,0-5.3-1.61-5.3-5v-5.93c0-3.42,1.87-5.08,5.3-5.08Z" style="fill:#fff"/><path d="M774.3,122.25c5.48,0,9.4,1.65,11,7.81L824,270.47c.68,2.95-.25,5.22-4.35,5.22h-7.58c-4.09,0-5.49-1.57-6.41-5.22l-10.52-39.65H741.8l-10.54,39.65c-.93,3.65-2.08,5.22-6.41,5.22h-7.36c-4.09,0-5.24-2.27-4.35-5.22l38.71-140.41c1.6-6.16,5.52-7.81,11-7.81Zm-28.65,93h45.59l-18.77-71c-1.14-4.37-1.82-5.08-3.86-5.08-2.32,0-2.77.71-4.16,5.08Z" style="fill:#fff"/><rect x="405.02" y="303.56" width="416.49" height="88.9" style="fill:#007580"/><path d="M435.13,322.89l25,34.41V322.89h8.57v50H461l-25-34.33v34.33h-8.56v-50Z" style="fill:#fff"/><path d="M494.94,343.17h20v8.13h-20v13.42h22.13v8.14h-30.7v-50h30.27V331h-21.7Z" style="fill:#fff"/><path d="M542,331H528.21v-8.14h36.11V331H550.55v41.83H542Z" style="fill:#fff"/><path d="M622.56,374.57l-15-37.47-15.21,37.47-19.7-51.68h9.71l10.57,30,11.35-30h7.06l11.14,30,10.85-30h8.92Z" style="fill:#fff"/><path d="M701.49,347.88c0,14.77-10.71,25.84-25.27,25.84S651,362.65,651,347.88,661.66,322,676.22,322,701.49,333.1,701.49,347.88Zm-8.71,0c0-9.64-6.49-17.7-16.56-17.7s-16.56,8.06-16.56,17.7,6.5,17.7,16.56,17.7S692.78,357.51,692.78,347.88Z" style="fill:#fff"/><path d="M716.33,322.89h16.42c9.92,0,16.56,6.43,16.56,15.57,0,7.49-4,13.2-11.14,15l12.5,19.41h-10L728.82,354H724.9v18.84h-8.57Zm24.27,15.57c0-4.93-3.43-7.43-8.92-7.43H724.9v14.85h6.78C737.17,345.88,740.6,343.38,740.6,338.46Z" style="fill:#fff"/><path d="M773.66,345.31l17.84-22.42h10.71l-19.56,24.56,22,25.41H793.29L773.66,350.3v22.56h-8.57v-50h8.57Z" style="fill:#fff"/></svg>