<?xml version="1.0" encoding="utf-8"?>
<!-- Generator: Adobe Illustrator 24.3.0, SVG Export Plug-In . SVG Version: 6.00 Build 0)  -->
<svg version="1.1" id="Layer_1" xmlns="http://www.w3.org/2000/svg" xmlns:xlink="http://www.w3.org/1999/xlink" x="0px" y="0px"
	 viewBox="0 0 261.7 212.8" style="enable-background:new 0 0 261.7 212.8;" xml:space="preserve">
<style type="text/css">
	.st0{fill:url(#SVGID_1_);}
	.st1{fill:url(#SVGID_2_);}
	.st2{fill:url(#SVGID_3_);}
	.st3{fill:url(#SVGID_4_);}
	.st4{fill:url(#SVGID_5_);}
	.st5{fill:url(#SVGID_6_);}
	.st6{fill:url(#SVGID_7_);}
	.st7{fill:url(#SVGID_8_);}
	.st8{fill:url(#SVGID_9_);}
	.st9{fill:url(#SVGID_10_);}
	.st10{fill:url(#SVGID_11_);}
	.st11{fill:url(#SVGID_12_);}
	.st12{fill:url(#SVGID_13_);}
	.st13{fill:url(#SVGID_14_);}
	.st14{fill:url(#SVGID_15_);}
	.st15{fill:url(#SVGID_16_);}
	.st16{fill:url(#SVGID_17_);}
	.st17{fill:url(#SVGID_18_);}
	.st18{fill:url(#SVGID_19_);}
	.st19{fill:url(#SVGID_20_);}
	.st20{fill:url(#SVGID_21_);}
	.st21{fill:url(#SVGID_22_);}
</style>
<linearGradient id="SVGID_1_" gradientUnits="userSpaceOnUse" x1="74.8567" y1="-130.2597" x2="429.5767" y2="214.5503" gradientTransform="matrix(1 0 0 -1 0 -42.3121)">
	<stop  offset="0" style="stop-color:#006763;stop-opacity:0"/>
	<stop  offset="1" style="stop-color:#006762"/>
</linearGradient>
<path class="st0" d="M150.1,54.1c1.7-11.5,3.5-24.6,2.6-37.7c-0.4-6.9-1.2-13.8-2.4-20.6c-1.3-6.7-2.5-14.7-1.8-23
	c1.4-20,10.9-38.5,26.3-51.2c16.1-13.3,36.9-19.6,57.7-17.4c2.3,0.2,4.4-1.4,4.6-3.7s-1.4-4.4-3.7-4.6l0,0
	c-23.1-2.5-46.1,4.5-64,19.2c-17.1,14.2-27.7,34.8-29.3,57c-0.8,9.3,0.6,18,2,25.2c1.1,6.5,1.9,13,2.2,19.6
	c0.9,12.2-0.9,24.7-2.5,35.8c-5.6,33.4-23.9,65.5-50.1,87.9c-1.8,1.5-2,4.1-0.5,5.9c0.1,0.1,0.2,0.2,0.3,0.3l0.1,0.1
	c1.6,1.6,4.3,1.6,5.9,0c0.2-0.2,0.4-0.5,0.6-0.8C125.4,122.5,144.2,89.1,150.1,54.1C150.1,54.2,150.1,54.1,150.1,54.1z"/>
<linearGradient id="SVGID_2_" gradientUnits="userSpaceOnUse" x1="142.6523" y1="-200.0069" x2="497.3723" y2="144.8031" gradientTransform="matrix(1 0 0 -1 0 -42.3121)">
	<stop  offset="0" style="stop-color:#006763;stop-opacity:0"/>
	<stop  offset="1" style="stop-color:#006762"/>
</linearGradient>
<path class="st1" d="M309.8,15c-0.2-12.4-1.9-24.7-3.5-36.7c-0.4-2.6-0.7-5.1-1-7.6c-2.7-23.2-14.1-43.9-31.1-56.9
	c-3.7-2.9-7.7-5.3-12.1-7.2c-0.6-4.8-4.9-8.2-9.7-7.7c-4.8,0.6-8.2,4.9-7.7,9.7c0.6,4.8,4.9,8.2,9.7,7.7c1.7-0.2,3.3-0.9,4.6-1.9
	c3.6,1.6,7,3.6,10.1,6.1c15.2,11.6,25.4,30.3,27.8,51.2c0.3,2.6,0.7,5.1,1,7.7c1.6,11.7,3.2,23.8,3.4,35.7
	c1.1,38.3-4.2,74.9-15.9,108.9c-5.8,16.9-11.1,29.3-17.2,40.4c-1.6,3-3.2,5.8-4.6,8.6c-4.8,0.4-8.5,4.6-8.1,9.5
	c0.4,4.8,4.6,8.5,9.5,8.1s8.5-4.6,8.1-9.5c-0.1-1.7-0.8-3.3-1.8-4.7c1.4-2.5,2.8-5.2,4.3-7.9c6.4-11.5,11.8-24.4,17.8-41.7
	C305.4,91.8,310.9,54.2,309.8,15z"/>
<linearGradient id="SVGID_3_" gradientUnits="userSpaceOnUse" x1="165.638" y1="-223.6435" x2="520.348" y2="121.1565" gradientTransform="matrix(1 0 0 -1 0 -42.3121)">
	<stop  offset="0" style="stop-color:#006763;stop-opacity:0"/>
	<stop  offset="1" style="stop-color:#006762"/>
</linearGradient>
<path class="st2" d="M360.1-16.6c-3.4-27.4-8.7-56-24.8-79.4c-3.3-5.2-7.1-10.1-11.2-14.7c-1.7-1.6-4.3-1.6-5.9,0.1
	c-1.5,1.5-1.6,4-0.2,5.6c3.8,4.3,7.3,8.8,10.4,13.6c14.3,20.8,19.7,45.3,23.4,75.7c2.8,27.8,2.7,55.9-0.3,83.7
	c-2.9,27.4-9.9,55.5-21.5,86.1c-0.8,2.2,0.3,4.6,2.4,5.4c0,0,0,0,0,0c0.5,0.2,1,0.3,1.5,0.3c1.7,0,3.3-1.1,3.9-2.7
	c11.8-31.3,19-60.1,22-88.2c3-28.4,3.1-57,0.3-85.5L360.1-16.6z"/>
<linearGradient id="SVGID_4_" gradientUnits="userSpaceOnUse" x1="37.4172" y1="-91.7413" x2="392.1371" y2="253.0587" gradientTransform="matrix(1 0 0 -1 0 -42.3121)">
	<stop  offset="0" style="stop-color:#006763;stop-opacity:0"/>
	<stop  offset="1" style="stop-color:#006762"/>
</linearGradient>
<path class="st3" d="M99,5.7c-6.1-28.2-2.8-57.3,9.2-81.9c8.1-16.3,17.8-29.3,29.1-38.9c4.3,2.3,9.6,0.7,11.9-3.6
	c2.3-4.3,0.7-9.6-3.6-11.9c-4.3-2.3-9.6-0.7-11.9,3.6c-0.7,1.3-1,2.7-1,4.1c0,0.2,0,0.4,0,0.7c-12.5,10.4-23.3,24.5-32,42.2
	C87.9-53.6,84.4-22.6,90.8,7.4c7,34.9-7.6,73.6-36.2,96.3c-1.9,1.4-2.3,4-1,5.8s4,2.3,5.8,1c0.1-0.1,0.2-0.2,0.3-0.2
	C90.8,85.6,106.6,43.6,99,5.7z"/>
<linearGradient id="SVGID_5_" gradientUnits="userSpaceOnUse" x1="1.9679" y1="-55.2721" x2="356.6779" y2="289.5379" gradientTransform="matrix(1 0 0 -1 0 -42.3121)">
	<stop  offset="0" style="stop-color:#006763;stop-opacity:0"/>
	<stop  offset="1" style="stop-color:#006762"/>
</linearGradient>
<path class="st4" d="M47.7,17.2c0,0,0-0.1,0-0.1c-5.6-29-5.3-56.4,1.1-81.4c14.2-58,59.2-107.5,114.7-126.1h0.1
	c15.1-5.4,32-8.7,51.7-9.8c9.8-0.4,19.9,0.3,29.7,1.1c2,4.4,7.2,6.4,11.6,4.4c4.4-2,6.4-7.2,4.4-11.6s-7.2-6.4-11.6-4.4
	c-1.5,0.7-2.9,1.8-3.8,3.2c-10.1-0.8-20.4-1.5-30.7-1.1c-20.5,1.2-38.2,4.6-54.1,10.3c-28.9,9.6-55.4,27.2-76.7,50.8
	c-21,23-35.9,50.9-43.4,81.2c-6.6,26.2-7,54.8-1.2,85c2.1,13.5-2.5,28.3-12.3,39.5c-1.5,1.8-1.2,4.4,0.6,5.9
	c1.7,1.4,4.2,1.2,5.7-0.4C44.9,50.6,50.2,33.2,47.7,17.2z"/>
<linearGradient id="SVGID_6_" gradientUnits="userSpaceOnUse" x1="129.4863" y1="-186.4601" x2="484.1963" y2="158.3499" gradientTransform="matrix(1 0 0 -1 0 -42.3121)">
	<stop  offset="0" style="stop-color:#006763;stop-opacity:0"/>
	<stop  offset="1" style="stop-color:#006762"/>
</linearGradient>
<path class="st5" d="M212.4,119.4c15.1-34.7,21.5-73.6,18.4-112.7c-0.6-6.7-1.6-13.5-2.6-20c-0.1-0.5-0.1-1-0.2-1.5
	c3.6-3.3,3.8-8.8,0.5-12.4c-3.3-3.6-8.8-3.8-12.4-0.5c-3.6,3.3-3.8,8.8-0.5,12.4c1.1,1.2,2.6,2.1,4.2,2.5c0,0.2,0.1,0.5,0.1,0.7
	c1,6.4,2,13,2.5,19.4c3,37.6-3.1,75.2-17.7,108.6c-5.5,12.7-12.2,24.9-19.9,36.5c-4.8,7.1-9.9,13.9-15.2,20.5
	c-0.4,0-0.7-0.1-1.1-0.1c-4.8,0-8.8,3.9-8.8,8.8c0,4.8,3.9,8.8,8.8,8.8c4.8,0,8.8-3.9,8.8-8.8c0-1.3-0.3-2.6-0.9-3.8
	c5.4-6.6,10.5-13.5,15.3-20.7C199.8,145.3,206.6,132.6,212.4,119.4z"/>
<linearGradient id="SVGID_7_" gradientUnits="userSpaceOnUse" x1="128.716" y1="-185.6693" x2="483.436" y2="159.1407" gradientTransform="matrix(1 0 0 -1 0 -42.3121)">
	<stop  offset="0" style="stop-color:#006763;stop-opacity:0"/>
	<stop  offset="1" style="stop-color:#006762"/>
</linearGradient>
<path class="st6" d="M257.2,12.7c0.2-10.6-1.5-21-3.1-31c-0.3-1.8-0.6-3.7-0.9-5.5c-1.3-9.3-4.8-16.1-10.6-21
	c-9.4-7.9-22.6-9.4-33.6-3.9c-10.8,5.3-17.4,16.4-16.9,28.4c0.2,3.6,0.7,7.1,1.6,10.6c0.4,2.1,0.9,4.1,1.1,6l0.1,1
	c0.9,6.5,1.8,13.3,2.1,19.9c0.6,12.7-0.3,26.5-2.7,42.2c-0.6,4-4.6,15.7-7.7,23.5c-0.8,2.2,0.3,4.6,2.4,5.4c2.1,0.8,4.5-0.2,5.3-2.3
	c2.4-6.1,7.3-19.7,8.1-25.3c2.5-16.3,3.4-30.6,2.8-43.8c-0.3-6.9-1.2-13.9-2.1-20.6l-0.1-1c-0.3-2.3-0.8-4.5-1.2-6.7
	c-0.7-3-1.2-6-1.4-9.1c-0.4-8.7,4.4-16.8,12.3-20.6c8-4,17.7-2.9,24.5,2.8c4.2,3.5,6.6,8.5,7.7,15.8c0.3,1.9,0.6,3.7,0.9,5.6
	c1.6,10.2,3.2,19.8,3,29.6c0,0.1,0,0.2,0,0.3c1.7,30.6-2.2,61.2-11.7,90.3c-9.3,29.2-23.8,56.5-42.6,80.6c-1.3,1.9-0.9,4.5,1,5.8
	c1.8,1.3,4.2,1,5.6-0.7c19.5-24.9,34.4-53.1,44-83.2C254.8,75.8,258.9,44.2,257.2,12.7z"/>
<linearGradient id="SVGID_8_" gradientUnits="userSpaceOnUse" x1="106.2412" y1="-162.5448" x2="460.9612" y2="182.2551" gradientTransform="matrix(1 0 0 -1 0 -42.3121)">
	<stop  offset="0" style="stop-color:#006763;stop-opacity:0"/>
	<stop  offset="1" style="stop-color:#006762"/>
</linearGradient>
<path class="st7" d="M151,123.9c14.1-22.5,23-47.8,26.3-74.1c0.4-2.4,0.6-4.8,0.8-7.1c0.1-2.4,0.4-4.8,0.8-7.1
	c0.9-4.9,0.6-9.5,0.3-14v-0.3c-0.4-5.6-0.7-11.3-1-16.9l-0.4-7.1c-0.1-2.3-2-4.1-4.3-4.1c-2.3,0.1-4.1,2-4.1,4.3c0,0.1,0,0.2,0,0.3
	l0.4,7.1c0.3,5.6,0.6,11.3,1,16.9v0.3c0.3,4.2,0.5,8.1-0.2,12c-0.5,2.7-0.7,5.4-0.9,8c-0.2,2.3-0.3,4.4-0.7,6.5c0,0,0,0.1,0,0.1
	c-3.1,25.1-11.7,49.3-25.1,70.8c-7.5,12.1-16.3,23.2-26.4,33.1c-0.3,0-0.6,0-0.9,0c-4.8,0-8.8,3.9-8.8,8.8c0,4.8,3.9,8.8,8.8,8.8
	c4.8,0,8.8-3.9,8.8-8.8c0,0,0,0,0,0c0-1.3-0.3-2.6-0.9-3.8C134.5,147.4,143.5,136.1,151,123.9z"/>
<linearGradient id="SVGID_9_" gradientUnits="userSpaceOnUse" x1="209.534" y1="-268.7981" x2="564.2441" y2="76.0019" gradientTransform="matrix(1 0 0 -1 0 -42.3121)">
	<stop  offset="0" style="stop-color:#006763;stop-opacity:0"/>
	<stop  offset="1" style="stop-color:#006762"/>
</linearGradient>
<path class="st8" d="M387.3-5c-0.1-2.3-2.1-4.1-4.4-3.9c-2.3,0.1-4.1,2.1-3.9,4.4c2.7,43.2-0.5,83.8-9.5,120.8
	c0,0.2-0.1,0.4-0.1,0.6c-4.7,1.1-7.7,5.8-6.6,10.5s5.8,7.7,10.5,6.6c4.7-1.1,7.7-5.8,6.6-10.5c-0.4-1.7-1.2-3.2-2.4-4.3
	c0.1-0.3,0.2-0.6,0.2-0.9C386.8,80.4,390.1,39,387.3-5z"/>
<linearGradient id="SVGID_10_" gradientUnits="userSpaceOnUse" x1="36.1023" y1="-90.396" x2="390.8223" y2="254.414" gradientTransform="matrix(1 0 0 -1 0 -42.3121)">
	<stop  offset="0" style="stop-color:#006763;stop-opacity:0"/>
	<stop  offset="1" style="stop-color:#006762"/>
</linearGradient>
<path class="st9" d="M73.7,37.8c1.6-8.8,1.5-17.9-0.3-26.7C71.9,4,70.8-3.1,70.3-10.3c4-2.8,5-8.2,2.2-12.2c-2.8-4-8.2-5-12.2-2.2
	c-4,2.8-5,8.2-2.2,12.2c1,1.4,2.3,2.5,3.9,3.1c0.6,7.5,1.7,14.9,3.2,22.2c1.5,7.8,1.6,15.8,0.2,23.6c-1.8,11.3-6.1,22-12.7,31.4
	c-3.7,5-7.6,10.3-12.7,13.9c-1.9,1.3-2.3,3.9-1,5.8c0.1,0.2,0.3,0.4,0.5,0.6l0.1,0.1c1.6,1.6,4.3,1.6,5.9,0c0,0,0,0,0,0
	c0.2-0.2,0.3-0.3,0.5-0.5c5.6-4.3,9.7-10,13.4-15C66.8,62.3,71.7,50.3,73.7,37.8z"/>
<linearGradient id="SVGID_11_" gradientUnits="userSpaceOnUse" x1="100.9523" y1="-157.1066" x2="455.6723" y2="187.7034" gradientTransform="matrix(1 0 0 -1 0 -42.3121)">
	<stop  offset="0" style="stop-color:#006763;stop-opacity:0"/>
	<stop  offset="1" style="stop-color:#006762"/>
</linearGradient>
<path class="st10" d="M271.1,25.5c0,4.8,3.9,8.8,8.8,8.8c4.8,0,8.8-3.9,8.8-8.8c0-3.3-1.9-6.4-4.9-7.9c-0.7-18.1-2.2-37-7-55.2
	c-5.8-21.4-23.9-37.2-45.9-40c-22.8-3-41.9,5.6-55.5,24.8v0.1c-3.1,4.4-5.5,9.3-7,14.5c-4.5,1.7-6.9,6.7-5.2,11.3s6.7,6.9,11.3,5.2
	s6.9-6.7,5.2-11.3c-0.6-1.6-1.6-2.9-2.9-3.9c1.3-3.9,3.2-7.6,5.5-11c11.8-16.7,27.7-23.9,47.5-21.3c18.6,2.4,34,15.8,38.9,33.9
	c4.7,17.4,6.1,35.7,6.8,53.3C272.8,19.6,271.1,22.4,271.1,25.5z"/>
<linearGradient id="SVGID_12_" gradientUnits="userSpaceOnUse" x1="-8.4452" y1="-44.5606" x2="346.2648" y2="300.2494" gradientTransform="matrix(1 0 0 -1 0 -42.3121)">
	<stop  offset="0" style="stop-color:#006763;stop-opacity:0"/>
	<stop  offset="1" style="stop-color:#006762"/>
</linearGradient>
<path class="st11" d="M56.5-139c4.8-0.5,8.4-4.7,7.9-9.6c-0.1-0.9-0.3-1.8-0.7-2.6c8.5-10.4,18.1-20,28.4-28.6
	c33.8-28.3,77.4-44.9,122.8-46.8c31.7-1.2,63.2,5,92,18.2c2.1,1.1,4.6,0.3,5.7-1.8c1.1-2.1,0.3-4.6-1.8-5.7
	c-0.1-0.1-0.2-0.1-0.4-0.2c-30-13.8-62.9-20.3-95.9-19c-47.3,1.9-92.7,19.2-127.8,48.7c-10.8,9-20.7,19-29.6,29.9
	c-0.8-0.1-1.5-0.2-2.3-0.1c-4.8,0.5-8.4,4.7-7.9,9.6C47.4-142.1,51.6-138.6,56.5-139L56.5-139z"/>
<linearGradient id="SVGID_13_" gradientUnits="userSpaceOnUse" x1="176.8648" y1="-235.1891" x2="531.5748" y2="109.6109" gradientTransform="matrix(1 0 0 -1 0 -42.3121)">
	<stop  offset="0" style="stop-color:#006763;stop-opacity:0"/>
	<stop  offset="1" style="stop-color:#006762"/>
</linearGradient>
<path class="st12" d="M286.7,55.5c0-4.8-3.9-8.8-8.8-8.8c-4.8,0-8.8,3.9-8.8,8.8c0,2.9,1.4,5.5,3.7,7.2
	c-5.5,42.7-21.4,84.6-46.4,121.8c-1.3,1.9-0.8,4.5,1.2,5.8c1.9,1.3,4.5,0.8,5.8-1.2c25.7-38.2,42.1-81.5,47.7-125.5
	C284.5,62.3,286.7,59.1,286.7,55.5z"/>
<linearGradient id="SVGID_14_" gradientUnits="userSpaceOnUse" x1="141.2026" y1="-198.5063" x2="495.9126" y2="146.3037" gradientTransform="matrix(1 0 0 -1 0 -42.3121)">
	<stop  offset="0" style="stop-color:#006763;stop-opacity:0"/>
	<stop  offset="1" style="stop-color:#006762"/>
</linearGradient>
<path class="st13" d="M194.1,104.2c0-4.8-3.9-8.8-8.8-8.8c-4.8,0-8.8,3.9-8.8,8.8c0,2.1,0.7,4,2,5.6c-9.6,21.9-23.2,41.8-40,58.8
	c-1.6,1.7-1.4,4.4,0.3,5.9c1.6,1.5,4.1,1.5,5.7,0c17.6-17.8,31.8-38.7,41.9-61.6C190.7,112.3,194,108.6,194.1,104.2z"/>
<linearGradient id="SVGID_15_" gradientUnits="userSpaceOnUse" x1="89.9838" y1="-145.8181" x2="444.6938" y2="198.9919" gradientTransform="matrix(1 0 0 -1 0 -42.3121)">
	<stop  offset="0" style="stop-color:#006763;stop-opacity:0"/>
	<stop  offset="1" style="stop-color:#006762"/>
</linearGradient>
<path class="st14" d="M87.1,120.7C99.4,108,108.7,94.4,115,80.2c4.8-0.5,8.3-4.9,7.8-9.7c-0.5-4.8-4.9-8.3-9.7-7.8s-8.3,4.9-7.8,9.7
	c0.2,1.7,0.9,3.3,1.9,4.6c-5.8,13.2-14.6,25.8-26,37.7c-4.6-1.4-9.5,1.2-10.9,5.8c-1.4,4.6,1.2,9.5,5.8,10.9s9.5-1.2,10.9-5.8
	c0.3-1.1,0.5-2.2,0.3-3.4C87.3,121.8,87.2,121.2,87.1,120.7z"/>
<linearGradient id="SVGID_16_" gradientUnits="userSpaceOnUse" x1="-13.4778" y1="-39.3856" x2="341.2322" y2="305.4244" gradientTransform="matrix(1 0 0 -1 0 -42.3121)">
	<stop  offset="0" style="stop-color:#006763;stop-opacity:0"/>
	<stop  offset="1" style="stop-color:#006762"/>
</linearGradient>
<path class="st15" d="M26.9,31.2c-0.2-2.6-1.7-5-3.9-6.5c-0.5-3.7-1.3-7.4-2-10.9C20,9.1,19.1,4.6,18.6,0.1
	c-4.3-35.8,2.1-73.9,18-108.2h0.4c4.8-0.5,8.4-4.8,7.9-9.6s-4.8-8.4-9.6-7.9c-4.8,0.5-8.4,4.8-7.9,9.6c0.1,1.5,0.7,3,1.6,4.3
	C12.5-76,5.9-36.3,10.4,1c0.5,4.9,1.5,9.7,2.4,14.4c0.6,3,1.2,5.9,1.6,8.7c-4.4,2.1-6.3,7.3-4.2,11.7c2.1,4.4,7.3,6.3,11.7,4.2
	C25.2,38.4,27.2,34.9,26.9,31.2L26.9,31.2z"/>
<linearGradient id="SVGID_17_" gradientUnits="userSpaceOnUse" x1="216.776" y1="-276.2598" x2="571.496" y2="68.5502" gradientTransform="matrix(1 0 0 -1 0 -42.3121)">
	<stop  offset="0" style="stop-color:#006763;stop-opacity:0"/>
	<stop  offset="1" style="stop-color:#006762"/>
</linearGradient>
<path class="st16" d="M317.5,116.6c-4.8,0-8.8,3.9-8.8,8.8c0,2,0.7,4,2,5.5c-4.3,13.1-9.4,25.9-15.3,38.3c-1,2.1-0.1,4.6,2,5.6
	c2.1,1,4.6,0.1,5.6-2c5.9-12.6,11.1-25.5,15.5-38.6c4.8-0.5,8.3-4.8,7.8-9.7C325.7,120,321.9,116.6,317.5,116.6L317.5,116.6z"/>
<linearGradient id="SVGID_18_" gradientUnits="userSpaceOnUse" x1="108.102" y1="-164.4557" x2="462.812" y2="180.3543" gradientTransform="matrix(1 0 0 -1 0 -42.3121)">
	<stop  offset="0" style="stop-color:#006763;stop-opacity:0"/>
	<stop  offset="1" style="stop-color:#006762"/>
</linearGradient>
<path class="st17" d="M336.9,80.3c0-3-1.5-5.7-4-7.3c0.1-0.8,0.2-1.5,0.3-2.3c0.9-7.5,1.9-15.2,2.2-22.9c0.5-10.1,0.3-20.3,0.2-30.1
	c0-3.2-0.1-6.5-0.1-9.7c-0.1-13.3-2.1-26.5-4-39.3l-0.3-1.8c-3.6-23.8-12.1-43.1-25.8-59c-21.3-25-52.8-39-85.6-38.2
	c-29.1,0.2-56.4,12.5-76.8,34.6c-20.6,22.2-31.2,51.9-29.2,81.3c0.3,3.9,0.8,7.7,1.6,11.6c0.2,1.1,0.4,2.2,0.6,3.4
	c1.8,9.9,2.5,20,2.1,30c-4.2,2.5-5.5,7.9-3,12c2.5,4.2,7.9,5.5,12,3c4.2-2.5,5.5-7.9,3-12c-0.9-1.4-2.1-2.6-3.6-3.3
	c0.3-10.4-0.4-20.8-2.3-31.1c-0.2-1.2-0.4-2.3-0.6-3.5c-0.7-3.5-1.2-7-1.5-10.5c-1.9-27.2,7.9-54.5,26.9-75.1
	c18.8-20.4,44-31.7,70.8-31.9c30.3-0.7,59.4,12.2,79.1,35.3C311.8-72,319.6-54.1,323-31.9l0.3,1.8c1.9,12.5,3.9,25.4,3.9,38.1
	c0,3.2,0.1,6.5,0.1,9.7c0.1,9.7,0.2,19.8-0.2,29.7c-0.3,7.4-1.3,15-2.2,22.3c-0.1,0.9-0.2,1.7-0.3,2.6c-4.4,1.9-6.4,7.1-4.5,11.6
	c1.9,4.4,7.1,6.4,11.6,4.5C334.8,86.9,336.9,83.7,336.9,80.3L336.9,80.3z"/>
<linearGradient id="SVGID_19_" gradientUnits="userSpaceOnUse" x1="136.2117" y1="-193.3768" x2="490.9217" y2="151.4332" gradientTransform="matrix(1 0 0 -1 0 -42.3121)">
	<stop  offset="0" style="stop-color:#006763;stop-opacity:0"/>
	<stop  offset="1" style="stop-color:#006762"/>
</linearGradient>
<path class="st18" d="M412.1,71.8c0.1-0.8,0.1-1.7,0.2-2.5c0.9-9.9,1.8-20.2,1.9-30.4c0-3.7,0.1-7.4,0.2-11
	c0.2-12.3,0.5-25-1.3-37.6c-2.7-28.9-6.8-59.4-19-87.2c-19.9-46-58.7-82.6-106.5-100.4c-2.2-0.8-4.6,0.3-5.4,2.5s0.3,4.6,2.5,5.4
	l0,0c45.7,17,82.8,52,101.7,95.9c11.8,26.7,15.8,56.5,18.4,84.7c0,0.1,0,0.1,0,0.2c1.7,12,1.4,24.4,1.2,36.4
	c-0.1,3.6-0.1,7.4-0.2,11.1c-0.1,9.9-1,20-1.9,29.8l-0.3,3.1c-4.3,2.2-5.9,7.5-3.7,11.8c2.2,4.3,7.5,5.9,11.8,3.7
	c4.3-2.2,5.9-7.5,3.7-11.8C414.8,73.9,413.6,72.6,412.1,71.8L412.1,71.8z"/>
<linearGradient id="SVGID_20_" gradientUnits="userSpaceOnUse" x1="74.9109" y1="-130.3146" x2="429.6209" y2="214.4954" gradientTransform="matrix(1 0 0 -1 0 -42.3121)">
	<stop  offset="0" style="stop-color:#006763;stop-opacity:0"/>
	<stop  offset="1" style="stop-color:#006762"/>
</linearGradient>
<path class="st19" d="M383.2-38.2c-0.1-0.5-0.1-1-0.2-1.4c-0.9-5.8-1.8-11.8-3.1-17.6C360-144.1,273.5-198.5,186.6-178.7
	c-16.6,3.8-32.4,10.1-47,18.9c-30.1,18.1-53.4,45.4-66.5,77.9c-3.6,9.3-7.1,19.2-8.6,29.4c-4.5,1.7-6.8,6.8-5,11.3
	c1.7,4.5,6.8,6.8,11.3,5c4.5-1.7,6.8-6.8,5-11.3c-0.6-1.6-1.7-3-3-4c1.4-9.4,4.7-18.7,8.1-27.4c31.7-78.3,120.8-116,199-84.4
	c29.9,12.1,55.2,33.3,72.3,60.7c9.1,14.5,15.7,30.4,19.5,47.1c1.3,5.6,2.2,11.4,3,17c0.1,0.4,0.1,0.9,0.2,1.3
	c-3.9,2.8-4.8,8.3-1.9,12.3c2.8,3.9,8.3,4.8,12.3,1.9c3.9-2.8,4.8-8.3,1.9-12.3C386.1-36.5,384.7-37.6,383.2-38.2L383.2-38.2z"/>
<linearGradient id="SVGID_21_" gradientUnits="userSpaceOnUse" x1="123.31" y1="-180.1131" x2="478.03" y2="164.6969" gradientTransform="matrix(1 0 0 -1 0 -42.3121)">
	<stop  offset="0" style="stop-color:#006763;stop-opacity:0"/>
	<stop  offset="1" style="stop-color:#006762"/>
</linearGradient>
<path class="st20" d="M436.1-24.4c-1-50.4-19.9-100-52.4-137.3c-10.7-12.2-22.7-23.1-35.8-32.7c-1.2-0.9-6.3-4.1-10.9-6.8
	c-1.6-1-3-1.8-4.3-2.4c-0.4-4.8-4.6-8.4-9.5-8s-8.4,4.6-8,9.5c0.4,4.8,4.6,8.4,9.5,8c1.7-0.1,3.3-0.8,4.6-1.8
	c5.2,2.9,12.1,7.2,13.6,8.3c12.6,9.2,24.1,19.7,34.4,31.4c31.2,35.8,49.4,83.5,50.3,131.9c-4.2,2.3-5.8,7.7-3.4,11.9
	S432-6.7,436.2-9c4.2-2.3,5.8-7.7,3.4-11.9C438.8-22.4,437.6-23.6,436.1-24.4L436.1-24.4z"/>
<linearGradient id="SVGID_22_" gradientUnits="userSpaceOnUse" x1="45.5476" y1="-100.1106" x2="400.2675" y2="244.6994" gradientTransform="matrix(1 0 0 -1 0 -42.3121)">
	<stop  offset="0" style="stop-color:#006763;stop-opacity:0"/>
	<stop  offset="1" style="stop-color:#006762"/>
</linearGradient>
<path class="st21" d="M306.6-114c4.8,0,8.8-3.9,8.8-8.8c0-4.8-3.9-8.8-8.8-8.8c-1.4,0-2.8,0.4-4.1,1c-34.3-25.2-81-32.9-121-19.7
	c-2.7,0.9-5.3,1.9-7.8,2.9s-4.7,1.8-7,2.6c-2.2,0.7-3.5,3-2.8,5.2c0.7,2.2,3,3.5,5.2,2.8c0.1,0,0.2-0.1,0.3-0.1
	c2.5-0.9,5-1.8,7.4-2.8s4.9-1.9,7.3-2.8c37.6-12.5,81.5-5.1,113.7,18.7c0,0.2,0,0.5,0,0.8C297.8-118,301.7-114,306.6-114z"/>
</svg>
